<?xml version="1.0" encoding="UTF-8" standalone="no"?>
<svg
   width="121.21193pt"
   height="219.91556pt"
   viewBox="0 0 121.21193 219.91555"
   version="1.1"
   id="svg1368"
   sodipodi:docname="connectPicoSPI.svg"
   inkscape:version="1.3.2 (091e20e, 2023-11-25, custom)"
   xml:space="preserve"
   xmlns:inkscape="http://www.inkscape.org/namespaces/inkscape"
   xmlns:sodipodi="http://sodipodi.sourceforge.net/DTD/sodipodi-0.dtd"
   xmlns="http://www.w3.org/2000/svg"
   xmlns:svg="http://www.w3.org/2000/svg"><sodipodi:namedview
     id="namedview1368"
     pagecolor="#505050"
     bordercolor="#eeeeee"
     borderopacity="1"
     inkscape:showpageshadow="0"
     inkscape:pageopacity="0"
     inkscape:pagecheckerboard="0"
     inkscape:deskcolor="#505050"
     inkscape:document-units="pt"
     inkscape:zoom="0.97895766"
     inkscape:cx="191.53024"
     inkscape:cy="156.79943"
     inkscape:window-width="1920"
     inkscape:window-height="991"
     inkscape:window-x="1911"
     inkscape:window-y="-9"
     inkscape:window-maximized="1"
     inkscape:current-layer="svg1368" /><defs
     id="defs47" /><g
     id="g600"
     inkscape:label="w25q80dv"
     transform="matrix(0,-0.75,0.75,0,-398.33326,423.44511)"><g
       id="g61"
       transform="translate(-3.8002363)"><path
         fill-rule="nonzero"
         fill="#cccccc"
         fill-opacity="1"
         d="m 501.81556,625.38842 h 11.96875 v 11.96355 h -11.96875 z m 0,0"
         id="path862-3-4-7"
         style="stroke-width:1.33333" /><path
         fill-rule="nonzero"
         fill="#dbddda"
         fill-opacity="1"
         d="m 513.73743,630.76864 h 3.41666 v 1.20312 h -3.41666 z m 0,0"
         id="path883-0-0-3"
         style="stroke-width:1.33333" /><path
         fill-rule="nonzero"
         fill="#dbddda"
         fill-opacity="1"
         d="m 493.81559,630.76864 h 8 v 1.20312 h -8 z m 0,0"
         id="path884-1-8-3"
         style="stroke-width:1.33333" /><path
         fill-rule="nonzero"
         fill="#363a44"
         fill-opacity="1"
         d="m 507.74004,631.34677 c -0.16146,0 -0.32292,0.0416 -0.44271,0.16145 -0.11973,0.11987 -0.20312,0.23959 -0.23959,0.40104 v 0.48438 c 0,0.47917 0.0781,0.84376 0.19792,1.08333 0.12494,0.23959 0.28126,0.35939 0.52604,0.35939 0.19792,0 0.40104,-0.11987 0.51563,-0.35939 0.12493,-0.23957 0.20312,-0.52604 0.20312,-0.8802 0,-0.36459 -0.0781,-0.68751 -0.20312,-0.89063 -0.11453,-0.19792 -0.35937,-0.35937 -0.55729,-0.35937 m 1.16146,-3.45313 v 1.125 h -0.0781 c -0.48437,0 -0.88541,0.16146 -1.20312,0.44272 -0.32292,0.28124 -0.48437,0.72394 -0.52604,1.24478 0.28645,-0.32292 0.64583,-0.48437 1.08853,-0.48437 0.47918,0 0.88543,0.20312 1.20314,0.64583 0.3177,0.4375 0.4427,1 0.4427,1.6875 0,0.4375 -0.0833,0.84375 -0.2448,1.20312 -0.16145,0.35938 -0.39582,0.64063 -0.71874,0.84375 -0.32292,0.19792 -0.64583,0.28125 -1.04687,0.28125 -0.59896,0 -1.125,-0.24478 -1.48439,-0.76562 -0.35937,-0.52083 -0.56249,-1.16667 -0.56249,-2.0052 v -0.48438 c 0,-0.76042 0.11973,-1.40625 0.36459,-1.96354 0.23957,-0.56771 0.55729,-1.00522 1.04166,-1.32812 0.47916,-0.32292 0.96354,-0.44272 1.5625,-0.47918 z m 0,0"
         id="path849-7"
         style="stroke-width:1.33333" /><path
         fill-rule="nonzero"
         fill="#a22c6f"
         fill-opacity="1"
         d="m 517.15413,625.38582 h 51.23958 v 11.96875 h -51.23958 z m 0,0"
         id="path1154-6"
         style="stroke-width:1.33333" /><path
         fill-rule="nonzero"
         fill="#ffffff"
         fill-opacity="1"
         d="m 525.66975,631.93269 c -0.76042,-0.24478 -1.32813,-0.48437 -1.6875,-0.80729 -0.35938,-0.31771 -0.52083,-0.71875 -0.52083,-1.20312 0,-0.52084 0.19791,-1.00521 0.64063,-1.32292 0.4427,-0.36458 0.96353,-0.52082 1.64582,-0.52082 0.48438,0 0.88022,0.0781 1.24479,0.28124 0.36459,0.19791 0.64063,0.4375 0.83855,0.76042 0.20312,0.32291 0.28645,0.68228 0.28645,1.04167 h -0.88541 c 0,-0.40106 -0.11974,-0.71876 -0.40104,-0.95834 -0.28126,-0.2448 -0.64063,-0.36458 -1.08334,-0.36458 -0.4427,0 -0.80208,0.0781 -1.04166,0.28125 -0.24479,0.20312 -0.36459,0.47916 -0.36459,0.80208 0,0.28125 0.11987,0.52604 0.36459,0.72396 0.23958,0.19791 0.64062,0.35937 1.20312,0.52083 0.5625,0.16146 1.00521,0.32292 1.32292,0.52084 0.32292,0.20312 0.5625,0.40104 0.72396,0.68749 0.16145,0.23437 0.23958,0.56251 0.23958,0.91667 0,0.5677 -0.19792,1.00521 -0.64062,1.32813 -0.44271,0.32291 -1.00522,0.47916 -1.72918,0.47916 -0.47916,0 -0.8802,-0.0781 -1.28124,-0.27604 -0.40625,-0.16145 -0.72396,-0.44271 -0.92188,-0.72396 -0.20312,-0.32292 -0.32292,-0.68229 -0.32292,-1.08333 h 0.88022 c 0,0.40104 0.16145,0.71874 0.4427,0.96354 0.28646,0.23958 0.72396,0.35938 1.20312,0.35938 0.48439,0 0.84376,-0.0781 1.08855,-0.28126 0.23959,-0.19792 0.35937,-0.4427 0.35937,-0.80208 0,-0.35937 -0.11973,-0.60417 -0.35937,-0.76562 -0.24479,-0.19792 -0.64583,-0.40104 -1.24479,-0.5573"
         id="path1155-4"
         style="stroke-width:1.33333" /><path
         fill-rule="nonzero"
         fill="#ffffff"
         fill-opacity="1"
         d="m 530.20621,631.52644 h 1.60417 c 0.48437,0 0.84375,-0.11973 1.08333,-0.35937 0.24479,-0.23959 0.36458,-0.5625 0.36458,-1.0052 0,-0.40106 -0.11974,-0.71876 -0.36458,-0.96355 -0.23958,-0.23959 -0.59896,-0.35937 -1.04166,-0.40104 h -1.64584 z m 0,0.76563 v 2.6927 h -0.88542 v -6.86978 h 2.48959 c 0.72395,0 1.32812,0.20312 1.72916,0.56249 0.40104,0.40105 0.64063,0.88543 0.64063,1.52605 0,0.68228 -0.20312,1.16667 -0.60418,1.52604 -0.40104,0.35938 -1.0052,0.52604 -1.76561,0.52604 z m 0,0"
         id="path1156-3"
         style="stroke-width:1.33333" /><path
         fill-rule="nonzero"
         fill="#ffffff"
         fill-opacity="1"
         d="m 536.26871,634.98477 h -0.88021 v -6.86978 h 0.88021 z m 0,0"
         id="path1157-2"
         style="stroke-width:1.33333" /><path
         fill-rule="nonzero"
         fill="#ffffff"
         fill-opacity="1"
         d="m 541.08642,630.84415 c 0,-0.71875 -0.11987,-1.28124 -0.32292,-1.60416 -0.19792,-0.32292 -0.52084,-0.52084 -0.95834,-0.52084 -0.44792,0 -0.76562,0.16146 -0.96874,0.52084 -0.19792,0.35937 -0.31771,0.84374 -0.31771,1.56249 v 1.40625 c 0,0.72918 0.11973,1.29167 0.31771,1.65104 0.20312,0.35938 0.52082,0.52084 0.96874,0.52084 0.4375,0 0.71875,-0.16146 0.95834,-0.48437 0.24478,-0.31771 0.32292,-0.83855 0.32292,-1.56251 z m 0.84374,1.20833 c 0,1.00521 -0.16145,1.76563 -0.52084,2.28647 -0.36457,0.48437 -0.88541,0.76562 -1.60416,0.76562 -0.72396,0 -1.25,-0.2448 -1.60937,-0.72396 -0.36459,-0.48437 -0.52604,-1.20313 -0.52604,-2.17188 v -1.16145 c 0,-1.00521 0.16145,-1.76563 0.52604,-2.25 0.35937,-0.47917 0.88541,-0.71874 1.60937,-0.71874 0.71875,0 1.23959,0.23957 1.60416,0.71874 0.35939,0.48437 0.52084,1.20833 0.52084,2.16667 z m 0,0"
         id="path1158-0"
         style="stroke-width:1.33333" /><path
         fill-rule="nonzero"
         fill="#ffffff"
         fill-opacity="1"
         d="m 547.59162,631.93269 c -0.76563,-0.24478 -1.32812,-0.48437 -1.6875,-0.80729 -0.36458,-0.31771 -0.52084,-0.71875 -0.52084,-1.20312 0,-0.52084 0.19792,-1.00521 0.64063,-1.32292 0.44271,-0.32292 0.96355,-0.52082 1.65104,-0.52082 0.47917,0 0.88021,0.0781 1.2448,0.28124 0.35416,0.19791 0.63541,0.4375 0.83853,0.76042 0.19792,0.32291 0.28647,0.68228 0.28647,1.04167 h -0.89063 c 0,-0.40106 -0.11453,-0.71876 -0.39584,-0.95834 -0.28645,-0.2448 -0.64582,-0.36458 -1.08333,-0.36458 -0.44271,0 -0.80729,0.0781 -1.04687,0.28125 -0.23958,0.20312 -0.36458,0.47916 -0.36458,0.80208 0,0.28125 0.12493,0.52604 0.36458,0.72396 0.23958,0.19791 0.64063,0.35937 1.20312,0.52083 0.56251,0.16146 1.00522,0.32292 1.32292,0.52084 0.32292,0.20312 0.56771,0.40104 0.72396,0.68749 0.16667,0.23437 0.24479,0.56251 0.24479,0.91667 0,0.5677 -0.20312,1.00521 -0.64583,1.32813 -0.4375,0.32291 -1.00521,0.47916 -1.72396,0.47916 -0.48437,0 -0.88542,-0.0781 -1.28646,-0.27604 -0.40104,-0.16145 -0.72396,-0.44271 -0.92708,-0.72396 -0.19792,-0.32292 -0.31771,-0.68229 -0.31771,-1.08333 h 0.88541 c 0,0.40104 0.15626,0.71874 0.43751,0.96354 0.32291,0.23958 0.72396,0.35938 1.20833,0.35938 0.48438,0 0.84375,-0.0781 1.08334,-0.28126 0.23957,-0.19792 0.35937,-0.4427 0.35937,-0.80208 0,-0.35937 -0.11973,-0.60417 -0.35937,-0.76562 -0.23959,-0.15626 -0.64063,-0.40104 -1.2448,-0.5573"
         id="path1159-0"
         style="stroke-width:1.33333" /><path
         fill-rule="nonzero"
         fill="#ffffff"
         fill-opacity="1"
         d="m 556.22704,632.77124 c -0.0833,0.72916 -0.36458,1.28645 -0.80729,1.68749 -0.44271,0.40104 -1.04167,0.60418 -1.76043,0.60418 -0.80728,0 -1.4479,-0.28126 -1.93228,-0.88543 -0.47917,-0.55728 -0.72396,-1.36457 -0.72396,-2.32812 v -0.64063 c 0,-0.64062 0.11974,-1.20312 0.32291,-1.68749 0.23959,-0.48437 0.56251,-0.84376 0.96355,-1.125 0.40104,-0.23958 0.88541,-0.39584 1.44792,-0.39584 0.71874,0 1.28125,0.19792 1.72396,0.59896 0.4427,0.40104 0.68229,0.96355 0.76562,1.68229 h -0.88542 c -0.0781,-0.5625 -0.23958,-0.95833 -0.52083,-1.20312 -0.2448,-0.23958 -0.60417,-0.35938 -1.08333,-0.35938 -0.56251,0 -1.00522,0.19792 -1.32814,0.64062 -0.3229,0.44271 -0.47916,1.04688 -0.47916,1.8073 v 0.68229 c 0,0.76563 0.15626,1.32812 0.4375,1.77084 0.28646,0.43749 0.72396,0.64061 1.29166,0.64061 0.47396,0 0.88022,-0.11973 1.1198,-0.3229 0.23959,-0.20314 0.44271,-0.64063 0.52083,-1.20834 z m 0,0"
         id="path1160-3"
         style="stroke-width:1.33333" /><path
         fill-rule="nonzero"
         fill="#ffffff"
         fill-opacity="1"
         d="m 559.15412,631.77124 -0.84374,0.8802 v 2.33333 h -0.88022 v -6.86978 h 0.88022 v 3.375 l 3.01041,-3.375 h 1.08853 l -2.65104,3.01041 2.89063,3.81771 h -1.08333 z m 0,0"
         id="path1161-9"
         style="stroke-width:1.33333" /></g><g
       id="g62"
       transform="translate(-3.8002363)"><path
         fill-rule="nonzero"
         fill="#cccccc"
         fill-opacity="1"
         d="m 501.81556,664.24564 h 11.96875 v 11.96355 h -11.96875 z m 0,0"
         id="path862-3-4"
         style="stroke-width:1.33333" /><path
         fill-rule="nonzero"
         fill="#dbddda"
         fill-opacity="1"
         d="m 513.73743,669.62586 h 3.41666 v 1.20312 h -3.41666 z m 0,0"
         id="path883-0-0"
         style="stroke-width:1.33333" /><path
         fill-rule="nonzero"
         fill="#dbddda"
         fill-opacity="1"
         d="m 493.81559,669.62586 h 8 v 1.20312 h -8 z m 0,0"
         id="path884-1-8"
         style="stroke-width:1.33333" /><path
         fill-rule="nonzero"
         fill="#363a44"
         fill-opacity="1"
         d="m 505.91188,670.24825 0.32292,-3.49479 h 3.33333 v 1.125 h -2.20833 l -0.11973,1.48957 c 0.23957,-0.16666 0.52082,-0.24478 0.80208,-0.24478 0.56249,0 1.00521,0.20312 1.32812,0.59896 0.3177,0.40625 0.4375,0.96874 0.4375,1.68749 0,0.68751 -0.20313,1.2448 -0.55729,1.65105 -0.36459,0.39583 -0.84896,0.64062 -1.44792,0.64062 -0.35937,0 -0.68229,-0.0833 -1.0052,-0.24479 -0.32292,-0.15625 -0.56251,-0.39583 -0.72396,-0.71875 -0.16147,-0.32292 -0.28125,-0.64062 -0.28125,-1.04688 h 1.32812 c 0.0365,0.28647 0.0781,0.52084 0.19792,0.68751 0.12493,0.15624 0.28125,0.23437 0.4427,0.23437 0.20314,0 0.40104,-0.11453 0.52084,-0.3177 0.11974,-0.19792 0.16146,-0.52084 0.16146,-0.96355 0,-0.40104 -0.0781,-0.68229 -0.19792,-0.88541 -0.12494,-0.19792 -0.36458,-0.31771 -0.60416,-0.31771 -0.23959,0 -0.44271,0.0781 -0.60418,0.23957 l -0.0781,0.12494 z m 0,0"
         id="path852-1"
         style="stroke-width:1.33333" /><path
         fill-rule="nonzero"
         fill="#a22c6f"
         fill-opacity="1"
         d="m 517.15413,664.24305 h 51.23958 v 11.96874 h -51.23958 z m 0,0"
         id="path1209-3"
         style="stroke-width:1.33333" /><path
         fill-rule="nonzero"
         fill="#ffffff"
         fill-opacity="1"
         d="m 528.6385,670.78991 c -0.76041,-0.23957 -1.32292,-0.47916 -1.68751,-0.80208 -0.35937,-0.32292 -0.52082,-0.72396 -0.52082,-1.20312 0,-0.52604 0.20312,-1.00521 0.64582,-1.32813 0.43751,-0.32291 0.96355,-0.52083 1.64584,-0.52083 0.47916,0 0.88022,0.0833 1.24479,0.28126 0.35937,0.1979 0.64063,0.4427 0.83855,0.76041 0.20312,0.32292 0.28645,0.68229 0.28645,1.04688 h -0.88541 c 0,-0.40105 -0.11974,-0.72396 -0.40104,-0.96876 -0.28126,-0.23437 -0.64063,-0.35416 -1.08334,-0.35416 -0.4427,0 -0.80208,0.0781 -1.04688,0.27604 -0.23957,0.20312 -0.35937,0.48437 -0.35937,0.80729 0,0.27604 0.11987,0.52083 0.35937,0.71875 0.2448,0.20312 0.64063,0.35937 1.20834,0.52604 0.55729,0.15625 1,0.31771 1.32292,0.52084 0.32292,0.19791 0.5625,0.39583 0.71874,0.68229 0.16667,0.23958 0.2448,0.5625 0.2448,0.92187 0,0.56251 -0.19792,1.00521 -0.64062,1.32292 -0.44271,0.32292 -1.00522,0.48437 -1.72918,0.48437 -0.48437,0 -0.8802,-0.0833 -1.28645,-0.28125 -0.40104,-0.16145 -0.71875,-0.43749 -0.92188,-0.72396 -0.20312,-0.31771 -0.31771,-0.68228 -0.31771,-1.08333 h 0.88022 c 0,0.40105 0.16145,0.72396 0.4427,0.96354 0.32292,0.24479 0.71875,0.36459 1.20312,0.36459 0.48438,0 0.84376,-0.0833 1.08334,-0.28125 0.23958,-0.20312 0.35937,-0.44271 0.35937,-0.8073 0,-0.35937 -0.11973,-0.59896 -0.35937,-0.76041 -0.23958,-0.16145 -0.64063,-0.40625 -1.24479,-0.56251"
         id="path1210-2"
         style="stroke-width:1.33333" /><path
         fill-rule="nonzero"
         fill="#ffffff"
         fill-opacity="1"
         d="m 533.17495,670.42534 h 1.60937 c 0.47918,0 0.84376,-0.11987 1.08334,-0.35417 0.23958,-0.24479 0.35938,-0.56771 0.35938,-1.0052 0,-0.40626 -0.11986,-0.72396 -0.35938,-0.96876 -0.23958,-0.23958 -0.60416,-0.35938 -1.04167,-0.40104 h -1.65104 z m 0,0.72396 v 2.69271 h -0.8802 v -6.86459 h 2.48957 c 0.72396,0 1.32292,0.19792 1.72918,0.56249 0.39582,0.39584 0.64062,0.88022 0.64062,1.52606 0,0.68228 -0.20313,1.16145 -0.60417,1.52082 -0.40104,0.36459 -1.0052,0.52084 -1.76563,0.52084 z m 0,0"
         id="path1211-2"
         style="stroke-width:1.33333" /><path
         fill-rule="nonzero"
         fill="#ffffff"
         fill-opacity="1"
         d="m 539.27912,673.84201 h -0.88021 v -6.86459 h 0.88021 z m 0,0"
         id="path1212-3"
         style="stroke-width:1.33333" /><path
         fill-rule="nonzero"
         fill="#ffffff"
         fill-opacity="1"
         d="m 544.06038,669.70658 c 0,-0.72395 -0.11987,-1.28645 -0.32292,-1.60416 -0.20314,-0.32292 -0.52604,-0.52604 -0.96355,-0.52604 -0.44271,0 -0.76563,0.16145 -0.96875,0.52604 -0.19792,0.31771 -0.3125,0.84375 -0.3125,1.56249 v 1.40626 c 0,0.72396 0.11453,1.28646 0.3125,1.64584 0.20312,0.35937 0.52604,0.52082 0.96875,0.52082 0.43751,0 0.72396,-0.16145 0.96355,-0.47916 0.20312,-0.32292 0.32292,-0.84376 0.32292,-1.5677 z m 0.83853,1.20313 c 0,1.0052 -0.16145,1.76563 -0.52083,2.28646 -0.35937,0.48437 -0.88021,0.76562 -1.60417,0.76562 -0.72396,0 -1.24479,-0.23958 -1.60416,-0.72396 -0.36459,-0.47916 -0.52604,-1.20312 -0.52604,-2.16666 v -1.16667 c 0,-1 0.16145,-1.76563 0.52604,-2.24479 0.35937,-0.48437 0.8802,-0.72396 1.60416,-0.72396 0.72396,0 1.2448,0.23959 1.60417,0.72396 0.35938,0.47916 0.52083,1.20312 0.52083,2.16667 z m 0,0"
         id="path1213-8"
         style="stroke-width:1.33333" /><path
         fill-rule="nonzero"
         fill="#ffffff"
         fill-opacity="1"
         d="m 549.47704,670.30554 h 1.36458 c 0.4427,0 0.80209,-0.11973 1.04688,-0.35937 0.28125,-0.23959 0.40104,-0.5625 0.40104,-0.92187 0,-0.44272 -0.11974,-0.76563 -0.35938,-0.96876 -0.24478,-0.19791 -0.60417,-0.31771 -1.08854,-0.35937 h -1.36458 z m 1.60416,0.76563 h -1.60416 v 2.77084 h -0.88021 v -6.86459 h 2.24479 c 0.76562,0 1.36458,0.16145 1.77084,0.52083 0.40104,0.35938 0.60416,0.84376 0.60416,1.52605 0,0.44271 -0.12494,0.80208 -0.32291,1.125 -0.2448,0.31771 -0.56251,0.56249 -0.96355,0.71875 l 1.60416,2.89582 v 0.0365 h -0.96353 z m 0,0"
         id="path1214-1"
         style="stroke-width:1.33333" /><path
         fill-rule="nonzero"
         fill="#ffffff"
         fill-opacity="1"
         d="m 556.66454,669.62325 1.60937,-2.60938 h 1.04167 l -2.1302,3.41147 2.21353,3.45833 h -1.04687 l -1.64584,-2.6927 -1.68749,2.6927 h -1.04167 l 2.20834,-3.45833 -2.13022,-3.41147 h 1.04688 z m 0,0"
         id="path1215-8"
         style="stroke-width:1.33333" /></g><g
       id="g59"
       transform="translate(-3.8002363)"><path
         fill-rule="nonzero"
         fill="#cccccc"
         fill-opacity="1"
         d="m 501.81556,547.57476 h 11.96875 v 11.96355 h -11.96875 z m 0,0"
         id="path862-3-4-9"
         style="stroke-width:1.33333" /><path
         fill-rule="nonzero"
         fill="#363a44"
         fill-opacity="1"
         d="m 508.3208,552.04873 c 0,-0.28125 -0.0416,-0.47917 -0.11987,-0.64063 -0.0781,-0.16146 -0.1979,-0.23958 -0.40104,-0.23958 -0.16145,0 -0.28125,0.0781 -0.40104,0.23958 -0.12493,0.16146 -0.12493,0.35938 -0.12493,0.64063 0,0.28124 0.0416,0.47916 0.12493,0.64583 0.0781,0.15625 0.19792,0.23958 0.40104,0.23958 0.20314,0 0.32292,-0.0833 0.40104,-0.23958 0.0781,-0.16667 0.11987,-0.36459 0.11987,-0.64583 m -0.52084,3.93749 c 0.20313,0 0.36459,-0.0833 0.47917,-0.24478 0.12494,-0.16147 0.16146,-0.40104 0.16146,-0.72396 0,-0.31771 -0.0364,-0.5573 -0.16146,-0.71875 -0.11453,-0.16147 -0.27604,-0.23959 -0.47917,-0.23959 -0.20312,0 -0.35937,0.0781 -0.47916,0.23959 -0.12493,0.16145 -0.16147,0.40104 -0.16147,0.71875 0,0.32292 0.0365,0.52604 0.16147,0.72396 0.11973,0.20312 0.27604,0.24478 0.47916,0.24478 m 1.84896,-4.01562 c 0,0.32292 -0.0833,0.64062 -0.20312,0.88021 -0.11987,0.24479 -0.32292,0.48437 -0.59896,0.60416 0.27604,0.16147 0.52083,0.36459 0.67708,0.64584 0.16145,0.27604 0.24479,0.59896 0.24479,1 0,0.60416 -0.16146,1.08333 -0.52083,1.44792 -0.36459,0.35937 -0.84375,0.52083 -1.44792,0.52083 -0.60416,0 -1.08333,-0.16146 -1.44271,-0.52083 -0.36458,-0.36459 -0.52604,-0.84376 -0.52604,-1.44792 0,-0.35937 0.0833,-0.72396 0.23959,-1 0.16667,-0.28647 0.40104,-0.48437 0.68749,-0.64584 -0.24478,-0.16145 -0.4427,-0.35937 -0.60416,-0.60416 -0.16146,-0.23959 -0.19792,-0.55729 -0.19792,-0.88021 0,-0.59896 0.16146,-1.08334 0.51563,-1.40626 0.36459,-0.3229 0.80208,-0.52082 1.36979,-0.52082 0.5625,0 1.00521,0.16145 1.36458,0.52082 0.35938,0.35939 0.44271,0.84376 0.44271,1.40626"
         id="path843-6"
         style="stroke-width:1.33333" /><path
         fill-rule="nonzero"
         fill="#dbddda"
         fill-opacity="1"
         d="m 513.73743,552.95498 h 3.41666 v 1.20312 h -3.41666 z m 0,0"
         id="path883-0-0-31"
         style="stroke-width:1.33333" /><path
         fill-rule="nonzero"
         fill="#dbddda"
         fill-opacity="1"
         d="m 493.81559,552.95498 h 8 v 1.20312 h -8 z m 0,0"
         id="path884-1-8-8"
         style="stroke-width:1.33333" /><path
         fill-rule="nonzero"
         fill="#e83131"
         fill-opacity="1"
         d="m 517.15412,547.57477 h 51.23437 v 11.96354 h -51.23437 z m 0,0"
         id="path1007-9"
         style="stroke-width:1.33333" /><path
         fill-rule="nonzero"
         fill="#ffffff"
         fill-opacity="1"
         d="m 534.29996,555.96539 1.92708,-5.66146 h 0.96355 l -2.53125,6.86458 h -0.80208 l -2.48959,-6.86458 h 0.96355 z m 0,0"
         id="path1008-3"
         style="stroke-width:1.33333" /><path
         fill-rule="nonzero"
         fill="#ffffff"
         fill-opacity="1"
         d="m 542.81141,554.97841 c -0.0833,0.72396 -0.35937,1.28645 -0.80729,1.68749 -0.44271,0.40104 -1.04167,0.60417 -1.76561,0.60417 -0.8021,0 -1.44272,-0.28646 -1.9271,-0.88541 -0.47916,-0.56251 -0.71874,-1.36459 -0.71874,-2.32813 v -0.64063 c 0,-0.64583 0.11973,-1.20312 0.3177,-1.68749 0.23959,-0.48438 0.56251,-0.84375 0.96355,-1.125 0.40104,-0.23959 0.8802,-0.40104 1.44792,-0.40104 0.71875,0 1.28124,0.20312 1.72395,0.59896 0.44272,0.40624 0.68229,0.96353 0.76562,1.68749 H 541.926 c -0.0781,-0.56249 -0.24479,-0.96355 -0.52083,-1.20312 -0.2448,-0.23959 -0.60417,-0.36459 -1.08333,-0.36459 -0.56772,0 -1.00521,0.20312 -1.32813,0.64063 -0.32292,0.44792 -0.47916,1.04687 -0.47916,1.81249 v 0.6823 c 0,0.76562 0.15624,1.32292 0.43749,1.76562 0.28125,0.44271 0.72396,0.64063 1.28647,0.64063 0.48437,0 0.88541,-0.11973 1.125,-0.31771 0.23957,-0.20313 0.43749,-0.64584 0.52082,-1.20833 z m 0,0"
         id="path1143-3"
         style="stroke-width:1.33333" /><path
         fill-rule="nonzero"
         fill="#ffffff"
         fill-opacity="1"
         d="m 548.73433,554.97841 c -0.0833,0.72396 -0.35937,1.28645 -0.80729,1.68749 -0.44271,0.40104 -1.04167,0.60417 -1.76561,0.60417 -0.8021,0 -1.44272,-0.28646 -1.9271,-0.88541 -0.47916,-0.56251 -0.71874,-1.36459 -0.71874,-2.32813 v -0.64063 c 0,-0.64583 0.11973,-1.20312 0.3177,-1.68749 0.23959,-0.48438 0.56251,-0.84375 0.96355,-1.125 0.40104,-0.23959 0.8802,-0.40104 1.44792,-0.40104 0.71875,0 1.28124,0.20312 1.72395,0.59896 0.44272,0.40624 0.68229,0.96353 0.76562,1.68749 h -0.88541 c -0.0781,-0.56249 -0.24479,-0.96355 -0.52083,-1.20312 -0.2448,-0.23959 -0.60417,-0.36459 -1.08333,-0.36459 -0.56772,0 -1.00521,0.20312 -1.32813,0.64063 -0.32292,0.44792 -0.47916,1.04687 -0.47916,1.81249 v 0.6823 c 0,0.76562 0.15624,1.32292 0.43749,1.76562 0.28127,0.44271 0.72396,0.64063 1.28647,0.64063 0.48437,0 0.88541,-0.11973 1.125,-0.31771 0.23957,-0.20313 0.43749,-0.64584 0.52082,-1.20833 z m 0,0"
         id="path1143-4"
         style="stroke-width:1.33333" /></g><g
       id="g58"
       transform="translate(3.8002448)"><path
         fill-rule="nonzero"
         fill="#cccccc"
         fill-opacity="1"
         d="m 334.15061,676.20919 h -11.96875 v -11.96355 h 11.96875 z m 0,0"
         id="path862-3-6"
         style="stroke-width:1.33333" /><path
         fill-rule="nonzero"
         fill="#363a44"
         fill-opacity="1"
         d="m 327.31987,671.0321 h 1.04688 v -2.29167 l -0.0416,0.0416 z m 2.36979,0 h 0.60417 v 1.125 h -0.60417 v 1.48437 h -1.32291 v -1.48437 h -2.25 l -0.0781,-0.84375 2.32813,-4.5 h 1.32291 z m 0,0"
         id="path855-8"
         style="stroke-width:1.33333" /><path
         fill-rule="nonzero"
         fill="#dbddda"
         fill-opacity="1"
         d="m 322.22874,670.82897 h -3.41666 v -1.20312 h 3.41666 z m 0,0"
         id="path883-0-72"
         style="stroke-width:1.33333" /><path
         fill-rule="nonzero"
         fill="#dbddda"
         fill-opacity="1"
         d="m 342.15061,670.82897 h -8 v -1.20312 h 8 z m 0,0"
         id="path884-1-77"
         style="stroke-width:1.33333" /><path
         fill-rule="nonzero"
         fill="#363a44"
         fill-opacity="1"
         d="m 267.57771,664.24564 h 51.23437 v 11.96355 h -51.23437 z m 0,0"
         id="path1129-9"
         style="stroke-width:1.33333" /><path
         fill-rule="nonzero"
         fill="#ffffff"
         fill-opacity="1"
         d="m 289.21834,672.91752 c -0.23959,0.31771 -0.5625,0.5625 -0.95834,0.76042 -0.40625,0.16146 -0.89062,0.23958 -1.44792,0.23958 -0.56249,0 -1.04686,-0.11973 -1.48437,-0.40104 -0.44791,-0.28125 -0.76563,-0.64062 -1.0052,-1.125 -0.23959,-0.47917 -0.36459,-1.04166 -0.36459,-1.68229 v -0.60417 c 0,-1.04167 0.24479,-1.84895 0.72396,-2.41146 0.48438,-0.56249 1.125,-0.84374 2.01042,-0.84374 0.71874,0 1.28125,0.20312 1.68229,0.5677 0.44271,0.35938 0.68749,0.88022 0.80208,1.5625 h -0.8802 c -0.16147,-0.92187 -0.68229,-1.36458 -1.60417,-1.36458 -0.60416,0 -1.04688,0.20312 -1.36459,0.64063 -0.32291,0.44271 -0.48437,1.04687 -0.48437,1.84895 v 0.5625 c 0,0.76042 0.16146,1.36459 0.52084,1.84375 0.35937,0.44792 0.80208,0.68751 1.40624,0.68751 0.32292,0 0.64062,-0.0416 0.88542,-0.12494 0.23958,-0.0781 0.4375,-0.19792 0.64063,-0.35937 v -1.52605 h -1.56772 V 670.428 h 2.44792 z m 0,0"
         id="path1130-7"
         style="stroke-width:1.33333" /><path
         fill-rule="nonzero"
         fill="#ffffff"
         fill-opacity="1"
         d="m 295.92667,673.8394 h -0.88541 l -3.41146,-5.26042 v 5.26042 h -0.88021 v -6.8698 h 0.88021 l 3.41146,5.3073 v -5.3073 h 0.88541 z m 0,0"
         id="path1131-4"
         style="stroke-width:1.33333" /><path
         fill-rule="nonzero"
         fill="#ffffff"
         fill-opacity="1"
         d="m 298.37459,667.69356 v 5.38022 h 0.92708 c 0.67708,0 1.20313,-0.19792 1.60417,-0.64063 0.40104,-0.44271 0.5573,-1.04688 0.5573,-1.84896 v -0.40104 c 0,-0.76041 -0.15626,-1.36459 -0.52084,-1.80729 -0.35938,-0.43751 -0.88022,-0.64063 -1.52083,-0.64063 h -1.04688 z m -0.88021,6.14584 v -6.86458 h 1.92709 c 0.59895,0 1.11979,0.11973 1.56249,0.40104 0.44271,0.27604 0.80208,0.64062 1.04688,1.125 0.23438,0.47916 0.35938,1.04166 0.35938,1.68229 v 0.44271 c 0,0.64062 -0.12494,1.20833 -0.35938,1.68749 -0.2448,0.47917 -0.60417,0.84376 -1.04688,1.125 -0.4427,0.28125 -1.00521,0.40105 -1.60416,0.40105 z m 0,0"
         id="path1132-8"
         style="stroke-width:1.33333" /></g><g
       id="g55"
       transform="translate(3.8002448)"><path
         fill-rule="nonzero"
         fill="#cccccc"
         fill-opacity="1"
         d="m 334.15061,559.53832 h -11.96875 v -11.96355 h 11.96875 z m 0,0"
         id="path862-3"
         style="stroke-width:1.33333" /><path
         fill-rule="nonzero"
         fill="#dbddda"
         fill-opacity="1"
         d="m 322.22874,554.1581 h -3.41666 v -1.20312 h 3.41666 z m 0,0"
         id="path883-0"
         style="stroke-width:1.33333" /><path
         fill-rule="nonzero"
         fill="#dbddda"
         fill-opacity="1"
         d="m 342.15061,554.1581 h -8 v -1.20312 h 8 z m 0,0"
         id="path884-1"
         style="stroke-width:1.33333" /><path
         fill-rule="nonzero"
         fill="#363a44"
         fill-opacity="1"
         d="m 329.45009,556.968 h -1.32292 v -5.21876 l -1.28645,0.52084 v -1.125 l 2.48957,-1 h 0.16147 z m 0,0"
         id="path864-3"
         style="stroke-width:1.33333" /><path
         fill-rule="nonzero"
         fill="#a22c6f"
         fill-opacity="1"
         d="m 267.57249,547.57478 h 51.23959 v 11.96353 h -51.23959 z m 0,0"
         id="path1138-4"
         style="stroke-width:1.33333" /><path
         fill-rule="nonzero"
         fill="#ffffff"
         fill-opacity="1"
         d="m 276.44749,554.12164 c -0.76041,-0.24478 -1.32813,-0.48437 -1.68229,-0.80729 -0.36459,-0.31771 -0.52604,-0.72396 -0.52604,-1.20312 0,-0.52084 0.20312,-1.00521 0.64583,-1.32812 0.4375,-0.31772 0.95833,-0.52084 1.64062,-0.52084 0.48438,0 0.88542,0.0833 1.25,0.28645 0.35938,0.19792 0.64063,0.43751 0.83855,0.76043 0.20312,0.32291 0.28125,0.68229 0.28125,1.04167 h -0.88542 c 0,-0.40104 -0.11454,-0.71876 -0.40104,-0.96355 -0.27604,-0.23959 -0.64063,-0.35937 -1.08334,-0.35937 -0.43749,0 -0.80208,0.0781 -1.04166,0.28125 -0.24479,0.19791 -0.36459,0.47916 -0.36459,0.80208 0,0.28125 0.11973,0.52083 0.36459,0.72396 0.23958,0.20312 0.64062,0.35937 1.20313,0.52083 0.56249,0.16146 1.0052,0.32292 1.32291,0.52084 0.32813,0.20312 0.5677,0.40104 0.72396,0.68229 0.16146,0.23957 0.2448,0.56249 0.2448,0.92708 0,0.56249 -0.20314,1 -0.64063,1.32292 -0.44271,0.32291 -1.00521,0.47916 -1.72917,0.47916 -0.48438,0 -0.88542,-0.0781 -1.28646,-0.28125 -0.40104,-0.15624 -0.72396,-0.4375 -0.92188,-0.72395 -0.20312,-0.31772 -0.3177,-0.67709 -0.3177,-1.08333 h 0.88021 c 0,0.40624 0.15624,0.72916 0.44271,0.96874 0.3177,0.23959 0.71874,0.35938 1.20312,0.35938 0.47917,0 0.84374,-0.0781 1.08333,-0.28126 0.23959,-0.19792 0.35937,-0.4427 0.35937,-0.80208 0,-0.36458 -0.11973,-0.60417 -0.35937,-0.76562 -0.23959,-0.16146 -0.64063,-0.40104 -1.24479,-0.5573"
         id="path1139-4"
         style="stroke-width:1.33333" /><path
         fill-rule="nonzero"
         fill="#ffffff"
         fill-opacity="1"
         d="m 280.98395,553.75706 h 1.60417 c 0.48437,0 0.84896,-0.11974 1.08853,-0.35938 0.23959,-0.24478 0.35938,-0.56249 0.35938,-1.0052 0,-0.40104 -0.11974,-0.72396 -0.35938,-0.96354 -0.23957,-0.23959 -0.60416,-0.35938 -1.04166,-0.40104 h -1.65104 z m 0,0.72396 v 2.6927 h -0.8802 v -6.86978 h 2.48437 c 0.72916,0 1.32812,0.20312 1.72916,0.5625 0.40104,0.40104 0.64063,0.88542 0.64063,1.52604 0,0.6823 -0.19792,1.16667 -0.60416,1.52604 -0.39584,0.35938 -1,0.52083 -1.76563,0.52083 z m 0,0"
         id="path1140-9"
         style="stroke-width:1.33333" /><path
         fill-rule="nonzero"
         fill="#ffffff"
         fill-opacity="1"
         d="m 287.04645,557.16852 h -0.88542 v -6.86458 h 0.88542 z m 0,0"
         id="path1141-8"
         style="stroke-width:1.33333" /><path
         fill-rule="nonzero"
         fill="#ffffff"
         fill-opacity="1"
         d="m 291.82769,553.03311 c 0,-0.71876 -0.12493,-1.28125 -0.3229,-1.60417 -0.19792,-0.32292 -0.52084,-0.52083 -0.96355,-0.52083 -0.44271,0 -0.76563,0.16145 -0.96355,0.52083 -0.20312,0.32292 -0.3229,0.84374 -0.3229,1.5625 v 1.40624 c 0,0.72396 0.11973,1.28647 0.3229,1.65104 0.19792,0.35939 0.52084,0.52084 0.96355,0.52084 0.44271,0 0.72396,-0.16145 0.96355,-0.48437 0.1979,-0.32292 0.3229,-0.84375 0.3229,-1.56771 z m 0.88022,1.20833 c 0,1 -0.15626,1.76562 -0.52083,2.28646 -0.35939,0.47916 -0.88021,0.76562 -1.60939,0.76562 -0.71874,0 -1.23957,-0.2448 -1.60416,-0.72396 -0.35937,-0.48437 -0.52084,-1.20312 -0.52084,-2.17188 v -1.16145 c 0,-1.00521 0.16147,-1.76563 0.52084,-2.25 0.36459,-0.47917 0.88542,-0.72396 1.60416,-0.72396 0.72918,0 1.25,0.24479 1.60939,0.72396 0.36457,0.48437 0.52083,1.20312 0.52083,2.16667 z m 0,0"
         id="path1142-2"
         style="stroke-width:1.33333" /><path
         fill-rule="nonzero"
         fill="#ffffff"
         fill-opacity="1"
         d="m 301.38499,555.00186 c -0.0833,0.72396 -0.35938,1.28645 -0.8073,1.68749 -0.4427,0.40104 -1.04166,0.60417 -1.76561,0.60417 -0.80209,0 -1.44272,-0.28646 -1.92709,-0.88541 -0.47916,-0.56251 -0.71875,-1.36459 -0.71875,-2.32813 v -0.64063 c 0,-0.64583 0.11973,-1.20312 0.31771,-1.68749 0.23958,-0.48438 0.5625,-0.84375 0.96354,-1.125 0.40104,-0.23959 0.8802,-0.40104 1.44792,-0.40104 0.71875,0 1.28124,0.20312 1.72395,0.59896 0.44272,0.40624 0.68229,0.96353 0.76563,1.68749 h -0.88542 c -0.0781,-0.56249 -0.24478,-0.96355 -0.52082,-1.20312 -0.2448,-0.23959 -0.60418,-0.36459 -1.08334,-0.36459 -0.56772,0 -1.00521,0.20312 -1.32813,0.64063 -0.32292,0.44792 -0.47916,1.04687 -0.47916,1.81249 v 0.6823 c 0,0.76562 0.15624,1.32292 0.43749,1.76562 0.28126,0.44271 0.72396,0.64063 1.28647,0.64063 0.48437,0 0.88541,-0.11973 1.125,-0.31771 0.23957,-0.20313 0.43749,-0.64584 0.52083,-1.20833 z m 0,0"
         id="path1143-7"
         style="stroke-width:1.33333" /><path
         fill-rule="nonzero"
         fill="#ffffff"
         fill-opacity="1"
         d="m 304.59332,554.12164 c -0.76041,-0.24478 -1.32291,-0.48437 -1.68229,-0.80729 -0.36458,-0.31771 -0.52604,-0.72396 -0.52604,-1.20312 0,-0.52084 0.20313,-1.00521 0.64584,-1.32812 0.4427,-0.35417 0.95833,-0.52084 1.64062,-0.52084 0.48438,0 0.88542,0.0833 1.25,0.28645 0.35937,0.19792 0.64063,0.43751 0.83853,0.76043 0.20314,0.32291 0.28647,0.68229 0.28647,1.04167 h -0.88542 c 0,-0.40104 -0.11974,-0.71876 -0.40104,-0.96355 -0.28124,-0.23959 -0.64583,-0.35937 -1.08854,-0.35937 -0.4375,0 -0.80209,0.0781 -1.03646,0.28125 -0.24479,0.19791 -0.36458,0.47916 -0.36458,0.80208 0,0.28125 0.11974,0.52083 0.36458,0.72396 0.23437,0.20312 0.64062,0.35937 1.20313,0.52083 0.56249,0.16146 1,0.32292 1.32291,0.52084 0.31771,0.20312 0.5625,0.40104 0.72395,0.68229 0.16147,0.23957 0.23959,0.56249 0.23959,0.92708 0,0.56249 -0.20312,1 -0.64583,1.32292 -0.4375,0.32291 -0.99999,0.47916 -1.72395,0.47916 -0.47918,0 -0.88543,-0.0781 -1.28126,-0.28125 -0.40625,-0.15624 -0.72917,-0.4375 -0.92708,-0.72395 -0.19792,-0.31772 -0.32292,-0.67709 -0.32292,-1.08333 h 0.88542 c 0,0.40624 0.16146,0.72916 0.4427,0.96874 0.28126,0.23959 0.72396,0.35938 1.20314,0.35938 0.48437,0 0.84374,-0.0781 1.08333,-0.28126 0.24479,-0.19792 0.36457,-0.4427 0.36457,-0.80208 0,-0.36458 -0.11973,-0.60417 -0.36457,-0.76562 -0.23959,-0.19792 -0.64063,-0.40104 -1.2448,-0.5573"
         id="path1144-3"
         style="stroke-width:1.33333" /><path
         fill-rule="nonzero"
         fill="#ffffff"
         fill-opacity="1"
         d="m 308.8902,552.06956 0.0416,0.64583 c 0.40104,-0.48437 0.88541,-0.72395 1.52604,-0.72395 1.04688,0 1.60417,0.60416 1.60417,1.80728 v 3.3698 h -0.84376 v -3.3698 c 0,-0.36457 -0.0781,-0.64582 -0.23957,-0.80208 -0.16147,-0.16145 -0.40106,-0.28125 -0.76043,-0.28125 -0.28124,0 -0.52083,0.0781 -0.72396,0.23959 -0.20312,0.16146 -0.35937,0.35937 -0.47916,0.60417 v 3.60937 h -0.84896 v -5.09896 z m 0,0"
         id="path1145-5"
         style="stroke-width:1.33333" /></g><g
       id="g56"
       transform="translate(3.8002448)"><path
         fill-rule="nonzero"
         fill="#cccccc"
         fill-opacity="1"
         d="M 334.15061,598.38955 H 322.18186 V 586.426 h 11.96875 z m 0,0"
         id="path862-3-8"
         style="stroke-width:1.33333" /><path
         fill-rule="nonzero"
         fill="#dbddda"
         fill-opacity="1"
         d="m 322.22874,593.00933 h -3.41666 v -1.20312 h 3.41666 z m 0,0"
         id="path883-0-5"
         style="stroke-width:1.33333" /><path
         fill-rule="nonzero"
         fill="#dbddda"
         fill-opacity="1"
         d="m 342.15061,593.00933 h -8 v -1.20312 h 8 z m 0,0"
         id="path884-1-7"
         style="stroke-width:1.33333" /><path
         fill-rule="nonzero"
         fill="#363a44"
         fill-opacity="1"
         d="m 330.25218,595.86089 h -4.05729 v -0.92708 l 1.84896,-2.36459 c 0.24478,-0.32291 0.40625,-0.60416 0.52604,-0.84375 0.11973,-0.24478 0.15625,-0.48437 0.15625,-0.72396 0,-0.3229 -0.0365,-0.56249 -0.15625,-0.72395 -0.11974,-0.16146 -0.24479,-0.23958 -0.44271,-0.23958 -0.20313,0 -0.40104,0.0781 -0.52604,0.32291 -0.11987,0.23958 -0.19792,0.47917 -0.19792,0.83854 h -1.32292 c 0,-0.40104 0.0781,-0.80208 0.27604,-1.16145 0.20313,-0.36458 0.40625,-0.60417 0.72396,-0.80209 0.32292,-0.20312 0.68229,-0.28124 1.08333,-0.28124 0.60418,0 1.08334,0.16145 1.41147,0.52083 0.31771,0.36458 0.51561,0.80208 0.51561,1.4427 0,0.40104 -0.0781,0.76563 -0.28124,1.16667 -0.19792,0.40104 -0.52084,0.88542 -1.00521,1.48437 l -0.88021,1.2448 h 2.32813 z m 0,0"
         id="path861-3"
         style="stroke-width:1.33333" /><path
         fill-rule="nonzero"
         fill="#a22c6f"
         fill-opacity="1"
         d="m 267.57249,586.4234 h 51.23959 v 11.96875 h -51.23959 z m 0,0"
         id="path1170-3"
         style="stroke-width:1.33333" /><path
         fill-rule="nonzero"
         fill="#ffffff"
         fill-opacity="1"
         d="m 279.25999,592.97027 c -0.76042,-0.24479 -1.32812,-0.47916 -1.6875,-0.80208 -0.36458,-0.32292 -0.52084,-0.72396 -0.52084,-1.20312 0,-0.52084 0.19792,-1.00522 0.64063,-1.32814 0.44271,-0.3177 0.96355,-0.52082 1.64584,-0.52082 0.47916,0 0.88541,0.0833 1.24479,0.28124 0.36458,0.20313 0.64062,0.44272 0.84374,0.76042 0.19792,0.32291 0.28126,0.6823 0.28126,1.04687 h -0.88542 c 0,-0.40104 -0.11973,-0.72396 -0.40104,-0.96353 -0.28125,-0.23959 -0.64062,-0.35938 -1.08333,-0.35938 -0.44271,0 -0.80209,0.0781 -1.04167,0.27604 -0.2448,0.20312 -0.36458,0.48438 -0.36458,0.8073 0,0.28124 0.11973,0.52082 0.36458,0.72394 0.23958,0.19792 0.64063,0.35939 1.20312,0.52084 0.56251,0.16146 1.00522,0.31771 1.32292,0.51563 0.32292,0.20312 0.56771,0.40625 0.72396,0.68749 0.16146,0.23959 0.23958,0.56251 0.23958,0.92188 0,0.56771 -0.19791,1.00522 -0.64062,1.32812 -0.44272,0.32292 -1.00521,0.47918 -1.72917,0.47918 -0.47916,0 -0.88021,-0.0781 -1.28125,-0.28126 -0.40104,-0.16145 -0.72396,-0.43749 -0.92708,-0.72396 -0.19792,-0.3177 -0.31771,-0.68229 -0.31771,-1.08333 h 0.88541 c 0,0.40104 0.15626,0.72396 0.43751,0.96875 0.32291,0.23438 0.72396,0.35938 1.20312,0.35938 0.48437,0 0.84375,-0.0781 1.08855,-0.28125 0.23957,-0.19792 0.35937,-0.44271 0.35937,-0.80208 0,-0.36459 -0.11973,-0.60417 -0.35937,-0.76563 -0.2448,-0.16146 -0.64584,-0.40104 -1.2448,-0.5625"
         id="path1171-3"
         style="stroke-width:1.33333" /><path
         fill-rule="nonzero"
         fill="#ffffff"
         fill-opacity="1"
         d="m 283.79645,592.56923 h 1.60416 c 0.48438,0 0.84375,-0.11974 1.08334,-0.35938 0.2448,-0.24478 0.36458,-0.5625 0.36458,-1.00521 0,-0.40104 -0.11973,-0.72396 -0.36458,-0.96353 -0.23959,-0.23959 -0.59896,-0.35938 -1.04167,-0.40104 h -1.64583 z m 0,0.76041 v 2.69271 h -0.88542 v -6.86458 h 2.48958 c 0.72396,0 1.32814,0.19791 1.72918,0.5573 0.40104,0.40624 0.64062,0.88541 0.64062,1.53124 0,0.68229 -0.19792,1.16666 -0.60417,1.52084 -0.40104,0.36458 -1.00521,0.52604 -1.76563,0.52604 z m 0,0"
         id="path1172-4"
         style="stroke-width:1.33333" /><path
         fill-rule="nonzero"
         fill="#ffffff"
         fill-opacity="1"
         d="m 289.85895,596.02235 h -0.88542 v -6.86458 h 0.88542 z m 0,0"
         id="path1173-0"
         style="stroke-width:1.33333" /><path
         fill-rule="nonzero"
         fill="#ffffff"
         fill-opacity="1"
         d="m 294.67665,591.88693 c 0,-0.72396 -0.11973,-1.28125 -0.3177,-1.60416 -0.20312,-0.32292 -0.52604,-0.52604 -0.96875,-0.52604 -0.44271,0 -0.76041,0.16146 -0.96355,0.52604 -0.20312,0.32291 -0.3177,0.84375 -0.3177,1.5625 v 1.40625 c 0,0.72396 0.11453,1.28645 0.3177,1.64583 0.20314,0.35938 0.52084,0.52605 0.96355,0.52605 0.44271,0 0.72396,-0.16667 0.96875,-0.48439 0.19792,-0.3229 0.3177,-0.84374 0.3177,-1.5677 z m 0.84376,1.20314 c 0,1.0052 -0.16146,1.76561 -0.52084,2.29166 -0.36458,0.47916 -0.88541,0.76042 -1.60937,0.76042 -0.71875,0 -1.24479,-0.23959 -1.60417,-0.71875 -0.35938,-0.48439 -0.52083,-1.20833 -0.52083,-2.17188 v -1.16667 c 0,-1 0.16145,-1.76562 0.52083,-2.24478 0.35938,-0.48439 0.88542,-0.72396 1.60417,-0.72396 0.72396,0 1.24479,0.23957 1.60937,0.72396 0.35938,0.47916 0.52084,1.20312 0.52084,2.16666 z m 0,0"
         id="path1174-2"
         style="stroke-width:1.33333" /><path
         fill-rule="nonzero"
         fill="#ffffff"
         fill-opacity="1"
         d="m 303.71312,589.88173 h -2.17188 v 6.09895 h -0.88021 v -6.09895 h -2.17187 v -0.72396 h 5.22396 z m 0,0"
         id="path1175-4"
         style="stroke-width:1.33333" /><path
         fill-rule="nonzero"
         fill="#ffffff"
         fill-opacity="1"
         d="m 306.92145,591.76715 1.60938,-2.60938 h 1.04166 l -2.125,3.41146 2.20834,3.45312 h -1.04688 l -1.64583,-2.69271 -1.68751,2.69271 h -1.04166 l 2.20833,-3.45312 -2.1302,-3.41146 h 1.04687 z m 0,0"
         id="path1176-5"
         style="stroke-width:1.33333" /></g><rect
       style="fill:#000000;fill-opacity:1;stroke:none;stroke-width:1.332;stroke-dasharray:3.996, 3.996;stroke-dashoffset:0;stroke-opacity:1"
       id="rect54"
       width="161.61588"
       height="144.0645"
       x="531.11102"
       y="-490.01535"
       transform="rotate(90,1.6666666e-6,1.6666665e-6)"
       rx="6.6666665"
       ry="6.6666665" /><path
       d="m 118.94,126.94 h -18.01 v -8.99 h 18.01 l 1.02,0.12 0.9,0.36 0.9,0.54 0.72,0.66 0.54,0.9 0.3,0.9 0.12,1.02 -0.12,1.02 -0.3,0.96 -0.54,0.83 -0.72,0.72 -0.9,0.54 -0.9,0.3 z"
       style="fill:#9a916c;fill-opacity:1;fill-rule:evenodd;stroke:none;stroke-width:0.999718;stroke-dasharray:2.99916, 2.99916;stroke-dashoffset:0;stroke-opacity:1"
       clip-path="none"
       id="path419"
       transform="matrix(1.3330665,0,0,-1.3316844,211.40445,716.61464)" /><path
       d="m 118.94,97.764 h -18.01 v -8.987 h 18.01 l 1.02,0.06 0.9,0.359 0.9,0.539 0.72,0.719 0.54,0.839 0.3,0.959 0.12,1.018 -0.12,0.959 -0.3,0.958 -0.54,0.839 -0.72,0.719 -0.9,0.539 -0.9,0.36 z"
       style="fill:#9a916c;fill-opacity:1;fill-rule:evenodd;stroke:none;stroke-width:0.999718;stroke-dasharray:2.99916, 2.99916;stroke-dashoffset:0;stroke-opacity:1"
       transform="matrix(1.3330665,0,0,-1.3316844,211.40445,716.61464)"
       clip-path="none"
       id="path442" /><path
       d="m 118.94,68.506 h -18.01 v -8.987 h 18.01 l 1.02,0.119 0.9,0.3 0.9,0.539 0.72,0.719 0.54,0.899 0.3,0.899 0.12,1.018 -0.12,1.019 -0.3,0.958 -0.54,0.839 -0.72,0.719 -0.9,0.539 -0.9,0.3 z"
       style="fill:#9a916c;fill-opacity:1;fill-rule:evenodd;stroke:none;stroke-width:0.999718;stroke-dasharray:2.99916, 2.99916;stroke-dashoffset:0;stroke-opacity:1"
       transform="matrix(1.3330665,0,0,-1.3316844,211.40445,716.61464)"
       clip-path="none"
       id="path464" /><path
       d="M 118.94,39.327 H 100.93 V 30.34 h 18.01 l 1.02,0.06 0.9,0.36 0.9,0.539 0.72,0.719 0.54,0.839 0.3,0.958 0.12,1.019 -0.12,0.959 -0.3,0.958 -0.54,0.839 -0.72,0.719 -0.9,0.539 -0.9,0.36 z"
       style="fill:#9a916c;fill-opacity:1;fill-rule:evenodd;stroke:none;stroke-width:0.999718;stroke-dasharray:2.99916, 2.99916;stroke-dashoffset:0;stroke-opacity:1"
       transform="matrix(1.3330665,0,0,-1.3316844,211.40445,716.61464)"
       clip-path="none"
       id="path486" /><path
       d="M 190.99,126.94 H 209 v -8.99 h -18.01 l -1.02,0.12 -0.9,0.36 -0.9,0.54 -0.72,0.66 -0.54,0.9 -0.3,0.9 -0.12,1.02 0.12,1.02 0.3,0.96 0.54,0.83 0.72,0.72 0.9,0.54 0.9,0.3 z"
       style="fill:#9a916c;fill-opacity:1;fill-rule:evenodd;stroke:none;stroke-width:0.999718;stroke-dasharray:2.99916, 2.99916;stroke-dashoffset:0;stroke-opacity:1"
       transform="matrix(1.3330665,0,0,-1.3316844,211.40445,716.61464)"
       clip-path="none"
       id="path508" /><path
       d="M 190.99,97.764 H 209 v -8.987 h -18.01 l -1.02,0.06 -0.9,0.359 -0.9,0.539 -0.72,0.719 -0.54,0.839 -0.3,0.959 -0.12,1.018 0.12,0.959 0.3,0.958 0.54,0.839 0.72,0.719 0.9,0.539 0.9,0.36 z"
       style="fill:#9a916c;fill-opacity:1;fill-rule:evenodd;stroke:none;stroke-width:0.999718;stroke-dasharray:2.99916, 2.99916;stroke-dashoffset:0;stroke-opacity:1"
       transform="matrix(1.3330665,0,0,-1.3316844,211.40445,716.61464)"
       clip-path="none"
       id="path531" /><path
       d="M 190.99,68.506 H 209 v -8.987 h -18.01 l -1.02,0.119 -0.9,0.3 -0.9,0.539 -0.72,0.719 -0.54,0.899 -0.3,0.899 -0.12,1.018 0.12,1.019 0.3,0.958 0.54,0.839 0.72,0.719 0.9,0.539 0.9,0.3 z"
       style="fill:#9a916c;fill-opacity:1;fill-rule:evenodd;stroke:none;stroke-width:0.999718;stroke-dasharray:2.99916, 2.99916;stroke-dashoffset:0;stroke-opacity:1"
       transform="matrix(1.3330665,0,0,-1.3316844,211.40445,716.61464)"
       clip-path="none"
       id="path553" /><path
       d="M 190.99,39.327 H 209 V 30.34 h -18.01 l -1.02,0.06 -0.9,0.36 -0.9,0.539 -0.72,0.719 -0.54,0.839 -0.3,0.958 -0.12,1.019 0.12,0.959 0.3,0.958 0.54,0.839 0.72,0.719 0.9,0.539 0.9,0.36 z"
       style="fill:#9a916c;fill-opacity:1;fill-rule:evenodd;stroke:none;stroke-width:0.999718;stroke-dasharray:2.99916, 2.99916;stroke-dashoffset:0;stroke-opacity:1"
       clip-path="none"
       id="path575"
       transform="matrix(1.3330665,0,0,-1.3316844,211.40445,716.61464)" /><circle
       style="fill:#b3b3b3;fill-opacity:1;stroke:#000000;stroke-opacity:1"
       id="path48"
       cx="359.46814"
       cy="540.05328"
       r="5.3333335" /><text
       xml:space="preserve"
       style="fill:#ffffff;fill-opacity:1;stroke:#000000;stroke-width:1.332;stroke-dasharray:3.996, 3.996;stroke-dashoffset:0;stroke-opacity:1"
       x="577.08789"
       y="-414.67255"
       id="text54"
       transform="rotate(90)"><tspan
         sodipodi:role="line"
         id="tspan54"
         x="577.08789"
         y="-414.67255"
         style="fill:#ffffff;fill-opacity:1;stroke:none">W25Q80DV</tspan></text><g
       id="g2"><path
         fill-rule="nonzero"
         fill="#cccccc"
         fill-opacity="1"
         d="M 337.95085,637.35197 H 325.9821 v -11.96355 h 11.96875 z m 0,0"
         id="path862-3-2"
         style="stroke-width:1.33333" /><path
         fill-rule="nonzero"
         fill="#dbddda"
         fill-opacity="1"
         d="m 326.02898,631.97175 h -3.41666 v -1.20312 h 3.41666 z m 0,0"
         id="path883-0-7"
         style="stroke-width:1.33333" /><path
         fill-rule="nonzero"
         fill="#dbddda"
         fill-opacity="1"
         d="m 345.95085,631.97175 h -8 v -1.20312 h 8 z m 0,0"
         id="path884-1-2"
         style="stroke-width:1.33333" /><path
         fill-rule="nonzero"
         fill="#363a44"
         fill-opacity="1"
         d="m 331.24512,630.78946 h 0.64063 c 0.23958,0 0.4427,-0.0833 0.52082,-0.24479 0.0833,-0.16145 0.16147,-0.40104 0.16147,-0.68229 0,-0.28125 -0.0416,-0.47916 -0.16147,-0.64063 -0.11453,-0.16145 -0.28124,-0.23958 -0.47916,-0.23958 -0.20313,0 -0.32292,0.0781 -0.4427,0.19792 -0.11987,0.11986 -0.16147,0.32292 -0.16147,0.5625 h -1.32291 c 0,-0.35937 0.0781,-0.68229 0.23958,-0.96354 0.16146,-0.28126 0.40104,-0.52083 0.68229,-0.6823 0.28125,-0.16145 0.64584,-0.23958 1.00521,-0.23958 0.64063,0 1.125,0.16146 1.48438,0.52084 0.35937,0.35937 0.52082,0.84374 0.52082,1.44792 0,0.3177 -0.0781,0.59896 -0.23957,0.8802 -0.16147,0.28125 -0.36459,0.48437 -0.64063,0.60417 0.31771,0.11973 0.5625,0.35937 0.71875,0.59896 0.16145,0.24479 0.24479,0.60416 0.24479,0.96353 0,0.60418 -0.20312,1.08855 -0.5625,1.44792 -0.35937,0.35938 -0.88541,0.56251 -1.52604,0.56251 -0.60417,0 -1.04688,-0.20313 -1.4427,-0.56251 -0.40626,-0.35937 -0.56771,-0.84374 -0.56771,-1.44792 h 1.32812 c 0,0.2448 0.0781,0.44271 0.19792,0.60418 0.12493,0.16145 0.28124,0.23958 0.48437,0.23958 0.23959,0 0.40104,-0.0781 0.5625,-0.23958 0.15625,-0.16147 0.19792,-0.40104 0.19792,-0.6823 0,-0.68229 -0.28126,-1.00521 -0.80208,-1.00521 h -0.64063 z m 0,0"
         id="path858-1"
         style="stroke-width:1.33333" /><path
         fill-rule="nonzero"
         fill="#7ac943"
         fill-opacity="1"
         d="m 271.37795,625.38842 h 51.23437 v 11.96355 h -51.23437 z m 0,0"
         id="path1032-0"
         style="stroke-width:1.33333" /><text
         xml:space="preserve"
         style="font-size:9.33333px;fill:#ffffff;stroke-width:1.332;stroke-dasharray:3.996, 3.996"
         x="286.80731"
         y="634.76312"
         id="text1"><tspan
           sodipodi:role="line"
           id="tspan1"
           x="286.80731"
           y="634.76312"
           style="font-size:9.33333px">WPn</tspan></text></g><g
       id="g3"><path
         fill-rule="nonzero"
         fill="#cccccc"
         fill-opacity="1"
         d="m 498.01532,586.426 h 11.96875 v 11.96355 h -11.96875 z m 0,0"
         id="path862-3-4-6"
         style="stroke-width:1.33333" /><path
         fill-rule="nonzero"
         fill="#363a44"
         fill-opacity="1"
         d="m 506.06743,589.73851 -2.16667,6.09896 h -1.40625 l 2.16667,-5.73958 h -2.72916 v -1.1198 h 4.13541 z m 0,0"
         id="path846-5"
         style="stroke-width:1.33333" /><path
         fill-rule="nonzero"
         fill="#dbddda"
         fill-opacity="1"
         d="m 509.93719,591.80622 h 3.41666 v 1.20312 h -3.41666 z m 0,0"
         id="path883-0-0-7"
         style="stroke-width:1.33333" /><path
         fill-rule="nonzero"
         fill="#dbddda"
         fill-opacity="1"
         d="m 490.01535,591.80622 h 8 v 1.20312 h -8 z m 0,0"
         id="path884-1-8-30"
         style="stroke-width:1.33333" /><path
         fill-rule="nonzero"
         fill="#7ac943"
         fill-opacity="1"
         d="m 513.35385,586.426 h 51.23437 v 11.96355 h -51.23437 z m 0,0"
         id="path1032-0-1"
         style="stroke-width:1.33333" /><text
         xml:space="preserve"
         style="font-size:9.33333px;fill:#ffffff;stroke-width:1.332;stroke-dasharray:3.996, 3.996"
         x="522.59216"
         y="595.80066"
         id="text1-4"><tspan
           sodipodi:role="line"
           id="tspan1-3"
           x="522.59216"
           y="595.80066"
           style="font-size:9.33333px">HOLDn</tspan></text></g></g></svg>
